<?xml version="1.0" standalone="no"?><!DOCTYPE svg PUBLIC "-//W3C//DTD SVG 1.1//EN" "http://www.w3.org/Graphics/SVG/1.1/DTD/svg11.dtd"><svg t="1582009454273" class="icon" viewBox="0 0 1024 1024" version="1.1" xmlns="http://www.w3.org/2000/svg" p-id="5567" xmlns:xlink="http://www.w3.org/1999/xlink" width="128" height="128"><defs><style type="text/css"></style></defs><path d="M524.81 539.55l18.59 37.68a14.29 14.29 0 0 0 10.76 7.82l41.57 6.05a14.29 14.29 0 0 1 7.92 24.38l-30.09 29.32a14.27 14.27 0 0 0-4.11 12.65l7.09 41.41a14.29 14.29 0 0 1-20.74 15.06l-37.18-19.55a14.31 14.31 0 0 0-13.3 0l-37.19 19.55a14.3 14.3 0 0 1-20.74-15.08l7.11-41.4a14.27 14.27 0 0 0-4.11-12.65l-30.08-29.33a14.3 14.3 0 0 1 7.93-24.38l41.57-6a14.3 14.3 0 0 0 10.77-7.82l18.6-37.67a14.29 14.29 0 0 1 25.63-0.04z" p-id="5568"></path><path d="M521.13 931.52h-18.36A282.82 282.82 0 0 1 220 648.62V369.46a25 25 0 0 1 25-25l534 0.09a25 25 0 0 1 25 25v279.16a282.85 282.85 0 0 1-282.85 282.8zM270 394.47v254.16a232.83 232.83 0 0 0 232.8 232.88h18.35A232.85 232.85 0 0 0 754 648.71V394.56z" p-id="5569"></path><path d="M687.34 394.54a25 25 0 0 1-25-25v-227H361.7v227a25 25 0 0 1-25 25 25 25 0 0 1-25-25v-252a25 25 0 0 1 25-25l350.64 0.06a25 25 0 0 1 25 25v252a25 25 0 0 1-25 24.94z" p-id="5570"></path><path d="M469.44 278.51h-45.79a25 25 0 1 1 0-50h45.79a25 25 0 1 1 0 50zM600.44 278.53h-45.79a25 25 0 0 1 0-50h45.79a25 25 0 1 1 0 50z" p-id="5571"></path></svg>